<?xml version="1.0" encoding="UTF-8" standalone="no"?>
<!-- Svg Vector Icons : http://www.onlinewebfonts.com/icon -->

<svg
   xmlns:dc="http://purl.org/dc/elements/1.1/"
   xmlns:cc="http://creativecommons.org/ns#"
   xmlns:rdf="http://www.w3.org/1999/02/22-rdf-syntax-ns#"
   xmlns:svg="http://www.w3.org/2000/svg"
   xmlns="http://www.w3.org/2000/svg"
   xmlns:xlink="http://www.w3.org/1999/xlink"
   xmlns:sodipodi="http://sodipodi.sourceforge.net/DTD/sodipodi-0.dtd"
   xmlns:inkscape="http://www.inkscape.org/namespaces/inkscape"
   version="1.1"
   x="0px"
   y="0px"
   viewBox="0 0 2032.2379 1181.9678"
   enable-background="new 0 0 1000 1000"
   xml:space="preserve"
   id="svg2"
   inkscape:version="0.91 r13725"
   sodipodi:docname="pendown.svg"
   width="2032.2379"
   height="1181.9678"
   inkscape:export-filename="/home/eric/data/WORK/PROJECT/TOOL/PENDOWN/LOGO/pendown.png"
   inkscape:export-xdpi="90"
   inkscape:export-ydpi="90"><defs
     id="defs14"><linearGradient
       inkscape:collect="always"
       id="linearGradient4246"><stop
         style="stop-color:#5d3089;stop-opacity:0"
         offset="0"
         id="stop4248" /><stop
         id="stop4254"
         offset="0.55233055"
         style="stop-color:#5d3089;stop-opacity:0.910299" /><stop
         style="stop-color:#5d3089;stop-opacity:0;"
         offset="1"
         id="stop4250" /></linearGradient><clipPath
       clipPathUnits="userSpaceOnUse"
       id="clipPath4151"><g
         id="g4153"><g
           id="g4155"
           transform="matrix(0.1,0,0,-0.1,0,512)"><path
             id="path4157"
             d="m 7494.5,4976 c -279.6,-93.8 -488.4,-224.1 -668.4,-415.6 -120.7,-130.2 -260.5,-377.3 -285.4,-501.8 -5.8,-36.4 -21.1,-67 -32.6,-67 -19.2,0 -9.6,210.7 17.2,342.8 l 13.4,65.1 -151.3,-103.4 c -226,-155.1 -513.3,-452 -632,-653.1 -114.9,-195.3 -208.8,-471.1 -245.1,-714.4 l -24.9,-172.4 -24.9,86.2 c -13.4,47.9 -28.7,176.2 -36.4,287.3 l -11.5,201.1 -118.6,-145.5 c -272,-335.2 -476.9,-695.2 -599.5,-1064.8 -72.8,-220.2 -132.1,-540.1 -136,-725.9 l -1.9,-93.8 -30.6,67 c -21.1,46 -32.6,145.6 -38.3,323.7 -9.6,296.9 -5.8,294.9 -162.8,21.1 -114.9,-197.3 -195.4,-400.3 -258.5,-645.4 -47.9,-195.3 -51.7,-231.7 -51.7,-632 0,-415.6 0,-423.2 -34.5,-369.6 -47.9,76.4 -109.2,256.5 -109.2,323.5 0,141.7 -67,42.1 -147.5,-218.3 -26.8,-88.1 -34.5,-176.2 -34.5,-383 0,-233.7 7.7,-293 53.6,-455.8 28.7,-105.3 51.7,-199.2 51.7,-210.7 0,-32.6 -128.3,153.2 -166.6,239.4 -51.7,118.7 -70.9,88.1 -57.5,-95.8 9.6,-151.3 47.9,-323.7 168.5,-760.3 l 42.1,-153.2 -122.6,-339 -122.6,-340.9 -350.5,0 c -346.7,0 -350.5,0 -396.5,-47.9 -63.2,-61.3 -63.2,-149.4 0,-210.7 24.9,-26.8 59.4,-47.9 76.6,-47.9 24.9,0 28.7,-26.8 24.9,-195.4 l -5.7,-195.4 -239.4,-70.8 c -132.1,-38.3 -266.2,-82.4 -296.9,-99.6 -72.8,-38.3 -168.5,-137.9 -210.7,-224.1 -44,-84.3 -147.5,-1068.7 -122.6,-1154.9 24.9,-88.1 65.1,-139.8 137.9,-174.3 59.4,-26.8 191.5,-30.6 1275.5,-30.6 1153,0 1214.2,1.9 1281.3,36.4 91.9,47.9 137.9,128.3 137.9,245.1 0,49.8 -21.1,300.7 -46,555.4 -49.8,492.2 -63.2,538.2 -172.4,653.1 -80.4,88.1 -130.2,111.1 -411.8,193.4 l -241.3,70.8 -5.7,195.4 c -3.8,168.5 0,195.4 24.9,195.4 17.2,0 51.7,21.1 76.6,47.9 57.5,55.5 61.3,141.7 11.5,203 -32.6,40.2 -57.5,47.9 -191.5,55.5 l -155.1,9.6 227.9,565 c 594,1476.7 1042.2,2419 1779.6,3744.3 442.4,796.7 967.2,1666.2 1139.5,1892.2 109.2,139.8 164.7,197.3 105.3,105.3 C 6916.1,3874.7 6295.6,2773.5 6031.3,2287 5194.4,747.2 4855.4,42.4 4309.6,-1294.4 c -91.9,-226 -160.9,-413.7 -153.2,-417.5 24.9,-9.6 465.4,159 645.4,247.1 114.9,57.5 208.8,120.7 298.8,204.9 70.8,68.9 130.2,130.2 130.2,137.9 0,7.7 -42.1,1.9 -93.9,-11.5 -97.7,-24.9 -421.3,-57.5 -404.1,-42.1 5.7,5.7 105.3,51.7 224.1,99.6 448.2,189.6 815.9,511.4 1009.3,886.7 42.1,84.3 40.2,86.2 -49.8,32.5 C 5809.2,-218 5631,-271.7 5489.3,-288.9 l -114.9,-11.5 139.8,72.8 c 392.6,204.9 760.4,603.3 1034.2,1116.6 101.5,191.5 239.4,497.9 227.9,509.4 -3.8,3.8 -63.2,-15.3 -130.2,-42.1 -76.6,-32.5 -172.4,-53.6 -256.6,-59.4 l -134.1,-7.7 124.5,68.9 c 463.5,264.3 746.9,647.3 1017,1375.1 l 55.5,151.3 -61.3,-38.3 c -84.3,-51.7 -272,-111.1 -398.4,-126.4 l -105.3,-13.4 114.9,63.2 c 369.6,204.9 687.6,701 766.1,1200.8 l 13.4,82.4 -88.1,-59.4 c -84.3,-59.4 -220.2,-116.8 -271.9,-116.8 -13.4,0 19.2,46 72.8,101.5 153.2,159 237.5,279.6 329.4,473.1 82.3,176.2 164.7,440.5 164.7,532.4 0,38.3 -7.7,42.1 -42.1,30.6 -88.1,-26.8 -226,-105.3 -346.6,-195.3 -67,-51.7 -134.1,-101.5 -147.5,-109.2 -30.6,-19.2 -21.1,-1.9 101.5,168.5 49.8,72.8 90,136 86.2,137.9 -3.9,3.9 -69,-13.3 -145.7,-40.1 z"
             inkscape:connector-curvature="0" /></g></g></clipPath><clipPath
       clipPathUnits="userSpaceOnUse"
       id="clipPath4162"><g
         id="g4164"><g
           transform="matrix(0.1,0,0,-0.1,0,512)"
           id="g4166"><path
             d="m 7494.5,4976 c -279.6,-93.8 -488.4,-224.1 -668.4,-415.6 -120.7,-130.2 -260.5,-377.3 -285.4,-501.8 -5.8,-36.4 -21.1,-67 -32.6,-67 -19.2,0 -9.6,210.7 17.2,342.8 l 13.4,65.1 -151.3,-103.4 c -226,-155.1 -513.3,-452 -632,-653.1 -114.9,-195.3 -208.8,-471.1 -245.1,-714.4 l -24.9,-172.4 -24.9,86.2 c -13.4,47.9 -28.7,176.2 -36.4,287.3 l -11.5,201.1 -118.6,-145.5 c -272,-335.2 -476.9,-695.2 -599.5,-1064.8 -72.8,-220.2 -132.1,-540.1 -136,-725.9 l -1.9,-93.8 -30.6,67 c -21.1,46 -32.6,145.6 -38.3,323.7 -9.6,296.9 -5.8,294.9 -162.8,21.1 -114.9,-197.3 -195.4,-400.3 -258.5,-645.4 -47.9,-195.3 -51.7,-231.7 -51.7,-632 0,-415.6 0,-423.2 -34.5,-369.6 -47.9,76.4 -109.2,256.5 -109.2,323.5 0,141.7 -67,42.1 -147.5,-218.3 -26.8,-88.1 -34.5,-176.2 -34.5,-383 0,-233.7 7.7,-293 53.6,-455.8 28.7,-105.3 51.7,-199.2 51.7,-210.7 0,-32.6 -128.3,153.2 -166.6,239.4 -51.7,118.7 -70.9,88.1 -57.5,-95.8 9.6,-151.3 47.9,-323.7 168.5,-760.3 l 42.1,-153.2 -122.6,-339 -122.6,-340.9 -350.5,0 c -346.7,0 -350.5,0 -396.5,-47.9 -63.2,-61.3 -63.2,-149.4 0,-210.7 24.9,-26.8 59.4,-47.9 76.6,-47.9 24.9,0 28.7,-26.8 24.9,-195.4 l -5.7,-195.4 -239.4,-70.8 c -132.1,-38.3 -266.2,-82.4 -296.9,-99.6 -72.8,-38.3 -168.5,-137.9 -210.7,-224.1 -44,-84.3 -147.5,-1068.7 -122.6,-1154.9 24.9,-88.1 65.1,-139.8 137.9,-174.3 59.4,-26.8 191.5,-30.6 1275.5,-30.6 1153,0 1214.2,1.9 1281.3,36.4 91.9,47.9 137.9,128.3 137.9,245.1 0,49.8 -21.1,300.7 -46,555.4 -49.8,492.2 -63.2,538.2 -172.4,653.1 -80.4,88.1 -130.2,111.1 -411.8,193.4 l -241.3,70.8 -5.7,195.4 c -3.8,168.5 0,195.4 24.9,195.4 17.2,0 51.7,21.1 76.6,47.9 57.5,55.5 61.3,141.7 11.5,203 -32.6,40.2 -57.5,47.9 -191.5,55.5 l -155.1,9.6 227.9,565 c 594,1476.7 1042.2,2419 1779.6,3744.3 442.4,796.7 967.2,1666.2 1139.5,1892.2 109.2,139.8 164.7,197.3 105.3,105.3 C 6916.1,3874.7 6295.6,2773.5 6031.3,2287 5194.4,747.2 4855.4,42.4 4309.6,-1294.4 c -91.9,-226 -160.9,-413.7 -153.2,-417.5 24.9,-9.6 465.4,159 645.4,247.1 114.9,57.5 208.8,120.7 298.8,204.9 70.8,68.9 130.2,130.2 130.2,137.9 0,7.7 -42.1,1.9 -93.9,-11.5 -97.7,-24.9 -421.3,-57.5 -404.1,-42.1 5.7,5.7 105.3,51.7 224.1,99.6 448.2,189.6 815.9,511.4 1009.3,886.7 42.1,84.3 40.2,86.2 -49.8,32.5 C 5809.2,-218 5631,-271.7 5489.3,-288.9 l -114.9,-11.5 139.8,72.8 c 392.6,204.9 760.4,603.3 1034.2,1116.6 101.5,191.5 239.4,497.9 227.9,509.4 -3.8,3.8 -63.2,-15.3 -130.2,-42.1 -76.6,-32.5 -172.4,-53.6 -256.6,-59.4 l -134.1,-7.7 124.5,68.9 c 463.5,264.3 746.9,647.3 1017,1375.1 l 55.5,151.3 -61.3,-38.3 c -84.3,-51.7 -272,-111.1 -398.4,-126.4 l -105.3,-13.4 114.9,63.2 c 369.6,204.9 687.6,701 766.1,1200.8 l 13.4,82.4 -88.1,-59.4 c -84.3,-59.4 -220.2,-116.8 -271.9,-116.8 -13.4,0 19.2,46 72.8,101.5 153.2,159 237.5,279.6 329.4,473.1 82.3,176.2 164.7,440.5 164.7,532.4 0,38.3 -7.7,42.1 -42.1,30.6 -88.1,-26.8 -226,-105.3 -346.6,-195.3 -67,-51.7 -134.1,-101.5 -147.5,-109.2 -30.6,-19.2 -21.1,-1.9 101.5,168.5 49.8,72.8 90,136 86.2,137.9 -3.9,3.9 -69,-13.3 -145.7,-40.1 z"
             id="path4168"
             inkscape:connector-curvature="0" /></g></g></clipPath><linearGradient
       inkscape:collect="always"
       xlink:href="#linearGradient4246"
       id="linearGradient4252"
       x1="338.58578"
       y1="207.40105"
       x2="791.32587"
       y2="446.31302"
       gradientUnits="userSpaceOnUse" /></defs><sodipodi:namedview
     pagecolor="#ffffff"
     bordercolor="#666666"
     borderopacity="1"
     objecttolerance="10"
     gridtolerance="10"
     guidetolerance="10"
     inkscape:pageopacity="0"
     inkscape:pageshadow="2"
     inkscape:window-width="3840"
     inkscape:window-height="2087"
     id="namedview12"
     showgrid="false"
     inkscape:zoom="0.64"
     inkscape:cx="23.894458"
     inkscape:cy="1034.9477"
     inkscape:window-x="0"
     inkscape:window-y="0"
     inkscape:window-maximized="1"
     inkscape:current-layer="svg2"
     fit-margin-top="100"
     fit-margin-left="100"
     fit-margin-right="100"
     fit-margin-bottom="100" /><metadata
     id="metadata4"> Svg Vector Icons : http://www.onlinewebfonts.com/icon <rdf:RDF><cc:Work
     rdf:about=""><dc:format>image/svg+xml</dc:format><dc:type
       rdf:resource="http://purl.org/dc/dcmitype/StillImage" /><dc:title></dc:title></cc:Work></rdf:RDF></metadata><g
     id="g4266"
     transform="matrix(0.56285767,0,0,0.56285767,-418.31652,71.857117)"><path
       transform="matrix(1.7802129,0,0,1.7802129,562.86777,32.182388)"
       clip-path="url(#clipPath4151)"
       id="rect4148"
       d="m 171.61018,743.11444 342.16101,0 0,265.88986 -342.16101,0 z"
       style="opacity:1;fill:#ff2a22;fill-opacity:1;stroke:none;stroke-width:80;stroke-linecap:round;stroke-miterlimit:4;stroke-dasharray:none;stroke-dashoffset:0;stroke-opacity:1"
       inkscape:connector-curvature="0" /><path
       transform="matrix(1.7802129,0,0,1.7802129,562.86777,32.182388)"
       clip-path="url(#clipPath4162)"
       id="rect4159"
       d="m 316.62355,-19.067799 541.14377,0 c 6.61257,0 11.93605,5.323478 11.93605,11.9360479 l 0,738.9721411 c 0,6.61257 -5.32348,11.93605 -11.93605,11.93605 l -541.14377,0 c -6.61257,0 -11.93605,-5.32348 -11.93605,-11.93605 l 0,-738.9721411 c 0,-6.6125699 5.32348,-11.9360479 11.93605,-11.9360479 z"
       style="opacity:1;fill:url(#linearGradient4252);fill-opacity:1;stroke:none;stroke-width:80;stroke-linecap:round;stroke-miterlimit:4;stroke-dasharray:none;stroke-dashoffset:0;stroke-opacity:1"
       inkscape:connector-curvature="0" /></g><text
     xml:space="preserve"
     style="font-style:normal;font-weight:normal;font-size:71.20851135px;line-height:125%;font-family:sans-serif;letter-spacing:0px;word-spacing:0px;fill:#4b4343;fill-opacity:1;stroke:none;stroke-width:1px;stroke-linecap:butt;stroke-linejoin:miter;stroke-opacity:1"
     x="574.91254"
     y="1070.8849"
     id="text4256"
     sodipodi:linespacing="125%"><tspan
       sodipodi:role="line"
       id="tspan4258"
       x="574.91254"
       y="1070.8849"
       style="font-style:normal;font-variant:normal;font-weight:normal;font-stretch:normal;font-size:445.05322266px;font-family:Rochester;-inkscape-font-specification:Rochester;fill:#4b4343;fill-opacity:1">Pendown</tspan></text>
</svg>