<?xml version="1.0" encoding="UTF-8" standalone="no"?>
<!-- Generator: Adobe Illustrator 18.1.1, SVG Export Plug-In . SVG Version: 6.00 Build 0)  -->

<svg
   xmlns:dc="http://purl.org/dc/elements/1.1/"
   xmlns:cc="http://creativecommons.org/ns#"
   xmlns:rdf="http://www.w3.org/1999/02/22-rdf-syntax-ns#"
   xmlns:svg="http://www.w3.org/2000/svg"
   xmlns="http://www.w3.org/2000/svg"
   xmlns:xlink="http://www.w3.org/1999/xlink"
   xmlns:sodipodi="http://sodipodi.sourceforge.net/DTD/sodipodi-0.dtd"
   xmlns:inkscape="http://www.inkscape.org/namespaces/inkscape"
   version="1.1"
   id="Capa_1"
   x="0px"
   y="0px"
   viewBox="0 0 2435.7745 2817.8778"
   xml:space="preserve"
   inkscape:version="0.91 r13725"
   sodipodi:docname="pendown.svg"
   width="2435.7744"
   height="2817.8777"
   inkscape:export-filename="/home/eric/data/WORK/PROJECT/TOOL/PENDOWN/LOGO/pendown.png"
   inkscape:export-xdpi="90"
   inkscape:export-ydpi="90"><metadata
     id="metadata51"><rdf:RDF><cc:Work
         rdf:about=""><dc:format>image/svg+xml</dc:format><dc:type
           rdf:resource="http://purl.org/dc/dcmitype/StillImage" /><dc:title></dc:title></cc:Work></rdf:RDF></metadata><defs
     id="defs49"><linearGradient
       inkscape:collect="always"
       id="linearGradient4201"><stop
         style="stop-color:#4653ff;stop-opacity:1"
         offset="0"
         id="stop4203" /><stop
         id="stop4209"
         offset="0.63238007"
         style="stop-color:#ce2677;stop-opacity:1" /><stop
         style="stop-color:#dc0000;stop-opacity:1"
         offset="1"
         id="stop4205" /></linearGradient><linearGradient
       inkscape:collect="always"
       xlink:href="#linearGradient4201"
       id="linearGradient4207"
       x1="660.12897"
       y1="1935.9025"
       x2="2242.9834"
       y2="239.93703"
       gradientUnits="userSpaceOnUse" /><linearGradient
       inkscape:collect="always"
       xlink:href="#linearGradient4201"
       id="linearGradient4235"
       gradientUnits="userSpaceOnUse"
       x1="660.12897"
       y1="1935.9025"
       x2="2242.9834"
       y2="239.93703" /><linearGradient
       inkscape:collect="always"
       xlink:href="#linearGradient4201"
       id="linearGradient4237"
       gradientUnits="userSpaceOnUse"
       x1="660.12897"
       y1="1935.9025"
       x2="2242.9834"
       y2="239.93703" /></defs><sodipodi:namedview
     pagecolor="#ffffff"
     bordercolor="#666666"
     borderopacity="1"
     objecttolerance="10"
     gridtolerance="10"
     guidetolerance="10"
     inkscape:pageopacity="0"
     inkscape:pageshadow="2"
     inkscape:window-width="1503"
     inkscape:window-height="1053"
     id="namedview47"
     showgrid="false"
     inkscape:zoom="0.12591427"
     inkscape:cx="1815.4258"
     inkscape:cy="826.68959"
     inkscape:window-x="411"
     inkscape:window-y="0"
     inkscape:window-maximized="0"
     inkscape:current-layer="Capa_1"
     fit-margin-top="150"
     fit-margin-left="300"
     fit-margin-right="300"
     fit-margin-bottom="150" /><g
     id="g4197"
     style="fill:url(#linearGradient4207);fill-opacity:1"
     transform="translate(-237.92817,-120.2117)"><path
       style="fill:url(#linearGradient4235);fill-opacity:1"
       d="m 654.12238,1557.5955 c -47.7318,168.7081 -45,297.1984 -26.52896,332.5086 l 28.87221,0 c 79.72436,-165.1335 463.70087,-763.3083 702.70057,-950.54728 247.6196,-194.00571 438.6305,-306.88829 599.2807,-389.21294 56.4114,-28.9021 114.2814,-68.04995 166.4665,-107.29344 63.3695,-49.97344 127.6116,-103.42588 183.8616,-155.73659 l -163.0532,106.93478 72.7005,-111.19687 -138.8018,141.13909 90.3228,-153.97915 c -213.6782,19.27803 -411.9699,126.18292 -411.9699,126.18292 -79.3299,94.09471 -143.2194,243.78188 -143.2194,243.78188 -2.2117,-74.84657 48.479,-188.18345 48.479,-188.18345 -37.4561,17.10215 -179.7668,98.38669 -179.7668,98.38669 -69.6101,57.74442 -91.2314,209.57758 -91.2314,209.57758 -13.2346,-59.89041 33.0326,-175.34338 33.0326,-175.34338 -200.5094,115.48884 -343.7287,312.22038 -343.7287,312.22038 -99.1339,194.59148 -17.6222,346.42468 -48.479,310.07438 -30.8568,-36.3503 -24.2216,-168.9353 -24.2216,-168.9353 -209.32053,201.0295 -231.33036,297.2343 -231.33036,297.2343 -35.24442,85.5407 -66.10122,314.3664 -66.10122,314.3664 -19.83395,-21.3941 0,-141.1391 0,-141.1391 -50.68478,106.9348 -26.43332,207.4316 -26.43332,207.4316 -24.22157,-8.578 -30.85082,-158.2711 -30.85082,-158.2711 z"
       id="path9"
       inkscape:connector-curvature="0" /><path
       style="fill:url(#linearGradient4237);fill-opacity:1"
       d="m 2308.8049,355.04101 c 0,0 -80.5971,78.09843 -183.8616,155.73658 C 1963.0617,638.45493 1807.1936,742.82528 1807.1936,742.82528 1196.5673,1103.6502 856.31752,1692.4939 743.85936,1894.3961 l 59.78879,0 c 21.13111,-16.9408 52.86663,-29.7151 185.39187,-68.0798 167.44088,-48.479 267.32198,-149.6872 267.32198,-149.6872 0,0 -152.7477,85.5406 -224.731,76.9926 -71.98324,-8.5481 -168.70814,18.5308 -168.70814,18.5308 0,0 -36.93611,-17.1022 145.20394,-44.1871 182.14,-27.0848 481.7773,-230.9418 481.7773,-230.9418 0,0 -114.5742,47.0444 -167.4409,42.7524 -52.8666,-4.292 -183.5985,0 -183.5985,0 86.6465,-19.9655 167.4409,-8.5481 299.6373,-58.4558 132.1965,-49.9076 124.8499,-45.6157 124.8499,-45.6157 149.8187,-49.9076 212.0524,-205.2856 212.0524,-205.2856 -25.9133,9.9828 -223.8224,34.2043 -305.9139,9.9828 -82.0976,-24.2216 -221.9634,0 -221.9634,0 132.1965,-44.1871 161.5887,-24.2216 193.8742,-25.6503 32.3154,-1.4286 136.62,7.1195 343.7288,-64.1465 207.1088,-71.2659 265.8574,-159.66989 265.8574,-159.66989 l -139.6745,18.66229 c 91.2015,-15.34468 194.0057,-75.68939 194.0057,-75.68939 -63.1722,17.10215 -161.5887,25.65024 -161.5887,25.65024 116.0388,-25.65024 180.6754,-61.28919 180.6754,-61.28919 108.6923,-82.68332 133.661,-205.2856 133.661,-205.2856 -154.2421,52.73512 -276.1331,28.51355 -276.1331,28.51355 211.5323,-14.23884 270.281,-68.4385 299.6374,-81.24867 29.3923,-12.84007 41.4851,-65.93385 41.4851,-65.93385 -106.869,38.49628 -228.0486,44.89838 -228.0486,44.89838 131.0906,-20.31815 243.4232,-86.61663 243.4232,-86.61663 l 0,-66.36425 c -50.6848,28.87221 -139.8718,51.33635 -139.8718,51.33635 l 138.7958,-89.80274 c 7.8009,-44.92827 -28.5494,-72.72449 -28.5494,-72.72449 z"
       id="path11"
       inkscape:connector-curvature="0" /></g><g
     id="g4192"
     style="fill:#1a1e6c;fill-opacity:1"
     transform="translate(-237.92817,-120.2117)"><path
       style="fill:#1a1e6c;fill-opacity:1"
       d="m 637.5104,2167.899 26.43331,-105.5718 -72.89187,-28.7766 -50.06907,82.5159 c 0,0 27.60494,74.8765 -3.0546,134.731 0.0239,0.01 38.38868,-65.342 99.58223,-82.8985 z m -48.96919,-48.4431 c 8.97251,-3.6763 19.3139,0.52 23.02006,9.3311 3.73606,8.8112 -0.52006,18.9553 -9.49256,22.6316 -8.9725,3.6762 -19.31389,-0.5201 -23.02006,-9.3312 -3.77192,-8.847 0.49017,-18.9911 9.49256,-22.6315 z"
       id="path5"
       inkscape:connector-curvature="0" /><path
       style="fill:#1a1e6c;fill-opacity:1"
       d="M 1402.2474,943.42438 C 1192.341,1115.5817 917.54095,1470.2018 684.48901,1884.4492 l -0.13151,-0.1614 -40.73791,71.8877 43.43982,16.7136 22.95431,-60.4763 C 834.34356,1688.3035 1171.6343,1103.0345 1788.3699,714.18022 c 0,0 229.6088,-136.75146 455.8342,-325.87938 -55.0784,46.04011 -163.7347,103.74867 -222.6508,140.97768 -154.6307,97.69926 -345.4503,189.51648 -619.3059,414.14586 z"
       id="path7"
       inkscape:connector-curvature="0" /><polygon
       transform="matrix(5.9776834,0,0,5.9776834,455.66329,270.2117)"
       style="fill:#1a1e6c;fill-opacity:1"
       points="23.551,290.571 37.361,296.103 39.933,289.989 26.124,284.458 "
       id="polygon13" /></g><path
     inkscape:connector-curvature="0"
     id="path15"
     d="m 1276.0002,1856.3775 c -272.7497,131.1265 -534.77543,220.5048 -883.25047,232.2091 -32.51262,1.1059 -32.67401,33.6185 0,32.5127 311.73619,-10.467 571.1258,-77.4768 821.27987,-194.7231 278.6676,-130.6363 534.6141,-240.1056 883.669,-277.3047 32.1898,-3.4491 18.5009,-34.7543 -13.4618,-31.341 -309.1299,32.9729 -560.2942,119.458 -808.2366,238.647 z"
     style="fill:#19216d;fill-opacity:1" /><g
     id="g17"
     transform="translate(-237.92817,2548.4573)" /><g
     id="g19"
     transform="translate(-237.92817,2548.4573)" /><g
     id="g21"
     transform="translate(-237.92817,2548.4573)" /><g
     id="g23"
     transform="translate(-237.92817,2548.4573)" /><g
     id="g25"
     transform="translate(-237.92817,2548.4573)" /><g
     id="g27"
     transform="translate(-237.92817,2548.4573)" /><g
     id="g29"
     transform="translate(-237.92817,2548.4573)" /><g
     id="g31"
     transform="translate(-237.92817,2548.4573)" /><g
     id="g33"
     transform="translate(-237.92817,2548.4573)" /><g
     id="g35"
     transform="translate(-237.92817,2548.4573)" /><g
     id="g37"
     transform="translate(-237.92817,2548.4573)" /><g
     id="g39"
     transform="translate(-237.92817,2548.4573)" /><g
     id="g41"
     transform="translate(-237.92817,2548.4573)" /><g
     id="g43"
     transform="translate(-237.92817,2548.4573)" /><g
     id="g45"
     transform="translate(-237.92817,2548.4573)" /><flowRoot
     xml:space="preserve"
     id="flowRoot4179"
     style="font-style:normal;font-weight:normal;font-size:40px;line-height:125%;font-family:sans-serif;letter-spacing:0px;word-spacing:0px;fill:#19216d;fill-opacity:1;stroke:none;stroke-width:1px;stroke-linecap:butt;stroke-linejoin:miter;stroke-opacity:1;"
     transform="matrix(6.8222016,0,0,6.8222016,492.70312,-533.66108)"><flowRegion
       id="flowRegion4181"><rect
         id="rect4183"
         width="407.14401"
         height="122.1432"
         x="-30.886787"
         y="397.31641"
         style="fill:#19216d;fill-opacity:1;" /></flowRegion><flowPara
       id="flowPara4185"
       style="font-style:normal;font-variant:normal;font-weight:normal;font-stretch:normal;font-size:70px;font-family:'Comic Sans MS';-inkscape-font-specification:'Comic Sans MS';fill:#19216d;fill-opacity:1;">Pendown</flowPara></flowRoot></svg>